<svg width="146" height="46" viewBox="0 0 146 46" fill="none" xmlns="http://www.w3.org/2000/svg">
<path d="M0 1.07739C2.43674 1.02624 4.87348 0.970831 7.31022 0.911156C7.31022 15.6339 7.31448 30.2799 7.323 44.8491C4.88626 45.2413 2.44952 45.6249 0.0127804 46C0.0127804 31.0642 0.00852008 16.09 0 1.07739ZM22.2885 43.0077C18.7356 43.5832 16.0774 43.1484 14.2498 41.6522C12.4351 40.0666 11.5277 37.5474 11.5277 34.0692C11.5191 33.2423 11.5191 32.4196 11.5277 31.6012C13.8366 31.3455 16.137 31.094 18.4289 30.8468C18.4374 31.8101 18.4417 32.7692 18.4417 33.724C18.4289 36.4349 19.6942 37.5986 22.2246 37.2533C23.4771 37.0871 24.3845 36.6523 25.0235 35.949C25.688 35.2073 26.0203 34.1332 26.0075 32.7138C26.0203 31.013 25.5602 29.568 24.6784 28.3532C23.8094 27.1 22.1607 25.655 19.7708 23.9671C16.7547 21.7676 14.6588 19.7088 13.4575 17.8035C12.2561 15.8342 11.6555 13.5964 11.6682 11.0389C11.6555 7.59904 12.5884 4.90087 14.4543 2.98274C16.3202 1.05182 19.0168 0.0671787 22.5569 0.00324107C26.0587 -0.0606966 28.6914 0.821643 30.455 2.62469C32.2698 4.37658 33.1772 6.93408 33.19 10.2844C33.1814 10.8556 33.1814 11.4268 33.19 11.9979C30.8895 12.0917 28.5891 12.1898 26.2887 12.2921C26.2887 11.5674 26.2887 10.8428 26.2887 10.1182C26.2759 8.68598 25.9692 7.6374 25.3557 7.0236C24.7295 6.35865 23.8093 6.03896 22.6336 6.07732C20.1926 6.15404 18.9657 7.56067 18.9785 10.2972C18.9785 11.8573 19.4002 13.2767 20.3076 14.5682C21.215 15.8726 22.8892 17.3815 25.2791 19.1078C28.3335 21.2817 30.455 23.251 31.5924 25.054C32.7554 26.8315 33.3178 28.9542 33.3178 31.435C33.3305 34.6319 32.3592 37.1894 30.455 39.1459C28.6147 41.128 25.8797 42.4195 22.2885 43.0077ZM42.9795 0.297354C46.2683 0.254729 49.5655 0.216367 52.8713 0.182267C55.4018 13.2767 57.928 25.6337 60.4499 37.2533C58.0132 37.475 55.5765 37.7137 53.1397 37.9694C52.6967 35.7529 52.2536 33.4981 51.8106 31.2048C51.8021 31.2389 51.7978 31.273 51.7978 31.3071C49.0288 31.5458 46.2598 31.8016 43.4907 32.0744C43.0562 34.5211 42.6132 36.9592 42.1616 39.3888C39.9038 39.7128 37.6459 40.0453 35.3881 40.3863C37.9186 27.2492 40.4491 13.8862 42.9795 0.297354ZM50.9543 26.4223C49.8637 20.199 48.7774 13.8266 47.6954 7.30492C47.6528 7.30492 47.6059 7.30492 47.5548 7.30492C46.4898 13.9203 45.429 20.4462 44.3726 26.8826C46.5622 26.7207 48.7561 26.5672 50.9543 26.4223ZM64.0028 0.105541C70.4355 0.0970163 76.8809 0.0970163 83.3391 0.105541C83.3391 2.01515 83.3348 3.92049 83.3263 5.82157C79.3219 5.80452 75.3175 5.79173 71.313 5.78321C71.3045 9.42339 71.3002 13.0252 71.3002 16.5887C74.4527 16.5887 77.6008 16.6015 80.7448 16.627C80.7362 18.4258 80.7362 20.2075 80.7448 21.9722C77.6008 21.9296 74.4569 21.9083 71.313 21.9083C71.3045 27.0489 71.3045 31.9763 71.313 36.6907C68.8763 36.7589 66.4395 36.8569 64.0028 36.9848C64.0028 25.4078 64.0028 13.1147 64.0028 0.105541ZM86.8281 0.131116C89.2733 0.148166 91.7143 0.165216 94.1511 0.182267C94.1426 11.5461 94.1426 22.5306 94.1511 33.1357C98.164 33.5194 102.173 33.9286 106.177 34.3633C106.177 36.1365 106.173 37.8927 106.164 39.6318C99.7317 38.7623 93.2863 37.9865 86.8281 37.3045C86.8281 25.5826 86.8281 13.1915 86.8281 0.131116ZM109.692 0.37408C112.128 0.40818 114.565 0.446542 117.002 0.489167C116.993 14.3594 116.993 27.9525 117.002 41.2686C114.557 40.885 112.12 40.5099 109.692 40.1433C109.692 27.2535 109.692 13.9971 109.692 0.37408ZM128.926 21.6909C126.242 14.5896 123.558 7.54362 120.874 0.553105C123.447 0.59573 126.02 0.642618 128.593 0.693768C130.229 5.37401 131.865 10.0883 133.501 14.8368C133.544 14.8453 133.591 14.8496 133.642 14.8496C135.32 10.2205 136.999 5.57008 138.677 0.898368C140.986 0.949519 143.295 1.00067 145.604 1.05182C142.92 8.22136 140.24 15.327 137.565 22.3686C140.377 30.152 143.188 37.995 146 45.8977C143.427 45.497 140.854 45.0921 138.281 44.6829C136.517 39.4485 134.749 34.2355 132.977 29.0437C132.934 29.0352 132.888 29.0309 132.836 29.0309C131.022 33.7538 129.207 38.3829 127.392 42.9182C125.092 42.5516 122.787 42.1851 120.478 41.8185C123.29 35.3224 126.106 28.6132 128.926 21.6909Z" fill="#1790FA"/>
</svg>
